<?xml version="1.0" ?><svg xmlns="http://www.w3.org/2000/svg" id="a" viewBox="0 0 100 100"><defs><style>.b{stroke-width:0px;}</style></defs><path class="b" d="m42.95,89.71h-1.08c-.6-.47-1.25-.88-1.79-1.41-2.71-2.69-5.39-5.41-8.07-8.13-.38-.38-.71-.81-1.06-1.2-3.76,3.04-6.89,3.31-9.64.91-1.1-.97-1.81-2.17-2.05-3.63-.44-2.61.73-4.64,2.4-6.49-.22-.24-.4-.42-.58-.6-3.27-3.3-6.54-6.6-9.8-9.91-1.14-1.16-1.14-2.45,0-3.61,1.27-1.29,2.54-2.57,3.81-3.85,1.05-1.05,1.87-1.2,3.2-.53,2.16,1.09,4.32,2.2,6.47,3.3,2.22,1.13,4.44,2.27,6.6,3.38,4.1-4.92,8.15-9.78,12.21-14.66-.22-.12-.55-.32-.88-.51-7.51-4.31-15.02-8.63-22.54-12.92-.88-.5-1.46-1.17-1.48-2.19-.06-2.68-.11-5.37-.12-8.05,0-1.24.86-2.2,2.05-2.34.46-.06.93,0,1.39.02,3.58.2,7.16.41,10.74.59.31.01.7-.16.93-.37.96-.9,1.85-1.88,2.8-2.78.91-.87,2.27-.87,3.16-.06.86.78.99,2.09.3,3.1-.11.16-.21.32-.36.54,2.43.14,4.77.28,7.12.38.23.01.53-.17.71-.35.94-.92,1.84-1.88,2.79-2.79.91-.87,2.26-.9,3.16-.1.88.77,1.02,2.07.34,3.09-.11.16-.21.32-.36.54,4.52.26,8.94.53,13.37.76.28.01.61-.2.84-.41,1.74-1.54,3.38-3.18,5.19-4.64,2.4-1.94,5.05-3.47,8.13-4.13,3.86-.83,7.39,1.09,8.5,4.63.12.39.23.78.34,1.17v2.01c-.45,2.13-1.16,4.15-2.26,6.04-1.77,3.04-4.04,5.66-6.52,8.12-.4.4-.55.8-.52,1.36.24,4.1.46,8.19.69,12.29.01.26.07.52.11.82,1.44-1,2.66-.97,3.54.03.91,1.04.76,2.29-.42,3.5-.81.83-1.65,1.63-2.43,2.49-.21.23-.36.62-.36.93,0,1.03.09,2.06.15,3.09.08,1.27.16,2.54.24,3.84.15-.06.2-.07.24-.1,1.19-.88,2.49-.85,3.34.09.9.99.81,2.31-.25,3.39-.83.85-1.65,1.71-2.51,2.52-.38.36-.48.73-.45,1.23.23,3.76.43,7.52.64,11.28.1,1.84-.87,2.88-2.71,2.85-2.35-.04-4.7-.13-7.04-.11-1.35.01-2.2-.53-2.85-1.7-4.26-7.63-8.56-15.24-12.84-22.86-.14-.24-.29-.47-.44-.72-.56.53-1.05,1.06-1.59,1.52-4.04,3.41-8.08,6.82-12.17,10.18-.62.51-.69.87-.34,1.57,1.91,3.89,3.76,7.8,5.62,11.71.6,1.26.46,2.11-.51,3.09-1.06,1.09-2.12,2.19-3.22,3.24-.59.56-1.26,1.02-1.89,1.53Zm-3.05-24.34c.76-.61,1.56-1.25,2.35-1.91,3.19-2.66,6.57-5.12,9.52-8.02,9.02-8.9,17.87-17.95,26.77-26.97,2.09-2.12,3.97-4.43,5.3-7.1.55-1.11,1.01-2.34,1.18-3.56.25-1.81-1.16-3.02-2.95-2.65-1,.2-1.99.55-2.9,1.02-2.93,1.49-5.4,3.6-7.7,5.91-6.51,6.55-13.01,13.11-19.5,19.69-2.97,3.01-5.98,5.99-8.8,9.14-2.44,2.73-4.63,5.67-6.93,8.52-.35.44-.7.87-1.05,1.31,1.59,1.57,3.13,3.08,4.71,4.63Zm22.76-40.88c-.04-.08-.09-.15-.13-.23-13.08-.74-26.16-1.49-39.25-2.23,0,1.27.04,2.4-.02,3.53-.03.58.2.85.68,1.13,4.75,2.7,9.48,5.43,14.22,8.14,2.99,1.72,5.99,3.43,8.71,4.99,5.32-5.17,10.55-10.25,15.78-15.34Zm15.54,53c-.74-13.26-1.48-26.44-2.2-39.31-5.16,5.01-10.39,10.08-15.6,15.14.91,1.62,1.76,3.12,2.61,4.63,3.54,6.29,7.07,12.58,10.62,18.86.15.26.42.64.64.65,1.28.06,2.56.03,3.93.03Zm-35.74,6.65c.26-.32.42-.61.66-.78.65-.47.62-.94.28-1.63-1.83-3.72-3.6-7.47-5.4-11.21-.19-.39-.44-.76-.74-1.06-2.02-2.06-4.05-4.12-6.1-6.16-.3-.3-.66-.58-1.04-.77-3.71-1.91-7.43-3.81-11.14-5.71q-1.67-.86-2.93.65c8.76,8.85,17.52,17.69,26.41,26.67Zm-15.06-8.4c-.85-.83-1.71-1.66-2.55-2.49-1.23,1.33-1.4,2.33-.47,3.17.87.79,1.92.54,3.03-.68Z"/></svg>